<?xml version="1.0" standalone="no"?>
<!DOCTYPE svg PUBLIC "-//W3C//DTD SVG 20010904//EN"
 "http://www.w3.org/TR/2001/REC-SVG-20010904/DTD/svg10.dtd">
<svg version="1.0" xmlns="http://www.w3.org/2000/svg"
 width="786.000000pt" height="786.000000pt" viewBox="0 0 786.000000 786.000000"
 preserveAspectRatio="xMidYMid meet">
<metadata>
Created by potrace 1.14, written by Peter Selinger 2001-2017
</metadata>
<g transform="translate(0.000000,786.000000) scale(0.100000,-0.100000)"
fill="#000000" stroke="none">
<path d="M448 7587 c-41 -49 -110 -145 -133 -185 -6 -9 -26 -44 -45 -77 -40
-67 -97 -191 -104 -227 -3 -13 -10 -41 -15 -63 -13 -51 -8 -161 9 -200 7 -16
13 -33 12 -36 -4 -20 77 -92 134 -120 56 -28 77 -33 157 -35 182 -6 293 49
350 175 30 65 29 191 -1 284 -32 98 -142 308 -194 372 -5 6 -35 45 -67 87
l-59 78 -44 -53z"/>
<path d="M3859 7541 c-122 -164 -198 -297 -240 -418 -90 -255 15 -452 255
-480 64 -7 60 -7 131 1 32 4 67 12 77 17 10 5 18 6 18 2 0 -4 4 -3 8 2 4 6 20
17 37 25 107 54 164 213 128 355 -38 150 -126 318 -263 500 -82 110 -68 110
-151 -4z"/>
<path d="M5223 7617 c-32 -37 -129 -171 -143 -197 -7 -14 -16 -27 -19 -30 -24
-20 -123 -226 -147 -305 -42 -144 -16 -278 70 -359 60 -56 129 -79 246 -82 58
-1 109 1 115 4 5 4 18 8 28 9 41 7 106 45 140 82 97 107 104 249 22 442 -51
120 -178 324 -266 426 l-27 31 -19 -21z"/>
<path d="M6263 7580 c-198 -254 -315 -512 -299 -663 17 -174 144 -275 345
-275 172 0 275 58 326 184 44 107 25 242 -58 414 -30 62 -182 303 -209 331 -7
8 -23 27 -35 42 l-22 28 -48 -61z"/>
<path d="M7290 7569 c-25 -33 -54 -73 -66 -87 -40 -52 -113 -178 -153 -263
-99 -210 -99 -355 -2 -476 14 -18 32 -33 39 -33 6 0 12 -4 12 -9 0 -13 103
-50 153 -55 23 -3 44 -6 47 -6 5 -2 55 1 100 5 63 6 144 42 187 84 87 83 110
221 61 371 -18 58 -95 227 -108 240 -3 3 -20 29 -38 59 -50 82 -164 231 -176
231 -6 0 -32 -27 -56 -61z"/>
<path d="M2533 7543 c-103 -133 -233 -350 -233 -388 0 -8 -4 -15 -8 -15 -5 0
-9 -6 -10 -12 0 -7 -8 -40 -17 -72 -39 -142 -17 -260 65 -347 17 -19 100 -72
100 -64 0 2 12 0 27 -6 23 -9 119 -23 148 -21 179 8 299 95 331 242 3 13 5 70
3 125 -1 35 -50 178 -86 250 -39 78 -141 238 -154 243 -5 2 -9 10 -9 18 0 8
-4 14 -8 14 -4 0 -15 12 -25 28 -9 15 -27 40 -40 55 l-24 28 -60 -78z"/>
<path d="M1449 7503 c-89 -121 -187 -278 -193 -308 -2 -5 -12 -30 -23 -55 -18
-38 -34 -79 -38 -100 -1 -3 -4 -19 -8 -35 -29 -120 -2 -235 73 -314 55 -57
129 -83 248 -86 81 -3 116 1 158 15 230 80 270 303 108 612 -31 60 -129 217
-151 243 -5 6 -27 34 -48 63 -22 28 -44 52 -50 52 -7 0 -41 -39 -76 -87z"/>
<path d="M60 6561 c0 -12 63 -96 123 -163 76 -85 83 -95 108 -145 13 -27 25
-50 26 -52 1 -3 105 -3 326 -1 31 0 47 4 47 13 0 28 84 158 143 219 23 24 74
93 86 116 l12 22 -436 0 c-251 0 -435 -4 -435 -9z"/>
<path d="M1100 6557 c0 -18 41 -73 125 -167 37 -41 71 -85 77 -97 6 -13 15
-23 19 -23 5 0 13 -17 18 -37 l10 -38 138 2 c76 1 161 2 190 2 39 1 51 4 47
14 -4 12 65 131 89 152 7 6 25 28 41 50 17 22 33 42 36 45 13 10 70 93 70 102
0 4 -193 8 -430 8 -354 0 -430 -2 -430 -13z"/>
<path d="M2170 6553 c0 -16 84 -122 172 -217 15 -17 39 -54 54 -83 20 -41 32
-53 50 -54 13 0 65 0 114 0 245 0 230 -3 237 31 3 17 9 30 14 30 5 0 9 6 9 13
0 7 30 51 68 98 101 126 142 181 142 190 0 5 -193 9 -430 9 -403 0 -430 -1
-430 -17z"/>
<path d="M3511 6548 c11 -21 75 -106 89 -118 45 -38 155 -192 159 -223 1 -7
99 -10 308 -8 59 1 61 2 72 32 11 31 79 131 121 179 12 14 34 41 49 60 14 19
29 37 32 40 7 6 29 47 29 54 0 3 -196 6 -435 6 l-436 0 12 -22z"/>
<path d="M4810 6561 c0 -9 56 -81 170 -216 27 -33 59 -79 70 -102 16 -35 25
-43 48 -43 135 -3 335 0 339 3 2 3 5 12 7 20 3 19 67 123 101 162 14 17 42 49
62 72 44 52 73 99 66 107 -11 10 -863 7 -863 -3z"/>
<path d="M5887 6553 c6 -19 37 -63 73 -103 109 -124 157 -189 166 -227 5 -18
13 -23 38 -24 29 0 221 0 309 1 23 0 37 5 37 13 0 26 52 108 122 192 68 81 91
112 104 137 l15 28 -435 0 c-410 0 -435 -1 -429 -17z"/>
<path d="M6920 6557 c0 -14 23 -49 61 -92 38 -44 112 -129 129 -151 24 -30 60
-94 60 -107 0 -9 28 -11 98 -10 53 1 136 2 184 2 81 1 87 2 93 24 7 20 71 125
84 137 28 24 151 190 151 202 0 5 -193 8 -430 8 -342 0 -430 -3 -430 -13z"/>
<path d="M6924 6128 c-6 -9 22 -64 44 -87 93 -96 175 -203 192 -251 l12 -35
185 5 185 5 12 36 c10 29 91 148 116 169 3 3 21 25 40 50 19 25 37 47 41 50 7
6 29 46 29 54 0 8 -851 12 -856 4z"/>
<path d="M60 6121 c0 -14 65 -97 143 -184 49 -54 107 -141 107 -161 0 -18 81
-23 262 -18 l107 3 22 47 c12 26 64 99 114 162 50 63 97 125 104 138 l12 22
-436 0 c-259 0 -435 -4 -435 -9z"/>
<path d="M1100 6117 c0 -7 11 -28 24 -46 22 -29 46 -58 145 -171 17 -19 43
-58 57 -87 l26 -52 76 -3 c43 -2 125 -2 183 0 l107 3 16 43 c9 23 56 92 104
152 85 106 122 158 122 169 0 3 -193 5 -430 5 -347 0 -430 -3 -430 -13z"/>
<path d="M2171 6108 c16 -32 88 -120 162 -202 21 -22 49 -65 63 -93 l26 -53
184 0 184 0 6 28 c7 27 49 99 69 117 23 21 165 207 165 216 0 5 -177 9 -435 9
l-436 0 12 -22z"/>
<path d="M3510 6119 c0 -16 35 -63 113 -154 82 -95 124 -154 129 -180 3 -17
14 -21 78 -25 41 -3 125 -3 185 -2 l110 4 24 51 c14 28 61 96 106 152 89 111
115 146 115 157 0 5 -193 8 -430 8 -305 0 -430 -3 -430 -11z"/>
<path d="M4831 6091 c22 -36 96 -127 142 -174 30 -30 97 -139 92 -148 -6 -9
158 -15 288 -11 60 2 87 7 87 15 0 30 120 205 166 243 8 6 14 16 14 22 0 6 4
12 8 14 9 4 52 63 52 72 0 3 -196 6 -436 6 l-436 0 23 -39z"/>
<path d="M5887 6111 c3 -11 48 -70 102 -133 97 -114 141 -177 141 -203 0 -11
27 -15 128 -17 70 -2 155 -2 189 0 56 3 62 5 67 28 7 25 48 97 70 120 6 7 22
27 36 45 14 18 30 37 35 43 22 23 73 92 84 114 l12 22 -435 0 c-423 0 -434 -1
-429 -19z"/>
<path d="M319 5692 c-4 -58 8 -294 17 -354 3 -18 5 -40 6 -48 1 -37 23 -180
44 -290 24 -121 29 -141 49 -210 9 -30 17 -64 19 -75 2 -11 6 -27 9 -35 3 -8
22 -64 42 -125 19 -60 38 -117 42 -125 3 -8 7 -17 8 -20 1 -3 6 -16 12 -30 6
-14 20 -47 31 -75 11 -27 41 -94 66 -147 25 -54 46 -101 45 -104 0 -4 3 -10 8
-13 5 -3 19 -26 32 -51 13 -25 48 -87 79 -138 32 -51 64 -105 72 -120 8 -15
17 -29 20 -32 3 -3 28 -36 55 -75 48 -69 171 -228 229 -295 136 -159 469 -459
632 -571 27 -18 51 -36 52 -41 2 -4 7 -8 12 -8 5 0 43 -22 84 -50 42 -27 80
-50 85 -50 5 0 11 -3 13 -7 8 -19 316 -176 458 -233 58 -23 119 -48 135 -55
32 -13 179 -62 211 -70 10 -3 69 -19 129 -35 103 -28 132 -35 195 -46 14 -2
48 -8 75 -14 103 -22 277 -43 357 -44 21 -1 38 -4 38 -7 0 -3 16 -4 35 -3 l35
3 0 -99 c0 -55 0 -282 0 -505 0 -223 0 -472 0 -554 l0 -148 -77 -17 c-43 -9
-89 -19 -103 -22 -57 -12 -167 -36 -190 -40 -14 -3 -33 -7 -42 -10 -9 -3 -27
-7 -40 -9 -32 -6 -146 -32 -248 -56 -47 -11 -94 -21 -105 -23 -28 -5 -76 -15
-170 -35 -33 -8 -67 -15 -75 -16 -8 -2 -15 -4 -15 -5 0 -1 -12 -3 -26 -5 -14
-2 -45 -9 -70 -15 -24 -7 -55 -14 -69 -17 -49 -9 -346 -74 -405 -89 l-61 -15
1 -117 0 -116 1858 0 c1023 -1 1863 2 1868 5 6 3 9 55 7 120 l-3 113 -85 19
c-47 9 -94 20 -105 22 -11 3 -62 14 -112 25 -99 21 -237 52 -343 76 -104 23
-253 55 -280 60 -14 3 -33 7 -42 10 -10 3 -28 7 -40 10 -30 5 -36 6 -218 48
-85 19 -166 37 -180 39 -97 19 -266 61 -270 68 -3 4 -5 297 -5 650 0 634 0
642 20 645 11 2 58 6 105 9 47 2 96 7 110 9 14 3 48 8 75 11 28 3 73 10 100
15 28 6 64 12 80 14 150 20 551 138 700 206 11 5 57 25 101 44 256 113 546
287 754 454 163 130 206 169 335 298 142 144 249 268 348 404 26 36 51 70 55
75 4 6 17 25 27 43 11 17 23 32 27 32 4 0 8 6 8 14 0 8 6 21 14 28 56 56 345
628 318 628 -4 0 -2 4 4 8 15 9 87 225 129 382 28 109 38 150 51 220 2 8 6 31
10 50 10 48 12 59 19 106 3 22 8 52 10 65 2 13 7 49 9 79 3 30 8 78 10 105 3
28 7 107 10 178 l5 127 -32 1 c-143 4 -301 3 -310 -3 -7 -4 -12 -31 -13 -60
-1 -57 -13 -244 -19 -293 -12 -103 -19 -151 -37 -240 -11 -55 -21 -109 -22
-120 -2 -11 -4 -20 -6 -20 -1 0 -3 -9 -5 -20 -12 -79 -100 -354 -152 -475 -3
-8 -7 -17 -8 -20 -21 -65 -151 -319 -240 -468 -136 -227 -411 -550 -630 -737
-32 -27 -69 -60 -83 -72 -14 -13 -28 -23 -31 -23 -3 0 -17 -10 -31 -23 -35
-32 -198 -147 -209 -147 -5 0 -11 -4 -13 -8 -10 -27 -369 -217 -543 -287 -186
-75 -498 -167 -645 -189 -99 -15 -267 -36 -332 -42 l-74 -5 1 340 c0 188 2
341 5 342 3 0 19 2 35 3 113 11 277 36 360 57 22 5 48 12 59 14 10 2 44 12 75
21 31 10 61 18 66 20 21 5 182 64 220 80 22 10 43 17 48 16 4 -1 7 3 7 8 0 6
9 10 20 10 11 0 20 5 20 12 0 6 3 9 6 5 3 -3 20 2 38 12 17 10 63 35 101 55
39 20 79 42 89 49 41 25 251 170 256 176 3 4 30 26 60 51 132 108 246 222 345
345 22 28 42 52 45 55 3 3 17 21 30 40 13 19 27 37 30 40 13 12 107 160 154
243 55 98 141 284 176 382 31 86 88 287 100 353 5 31 12 68 15 82 3 14 7 39 9
55 22 180 24 206 26 285 3 118 24 105 -170 104 -94 0 -172 -3 -174 -5 -2 -2
-7 -53 -10 -114 -7 -125 -9 -142 -32 -282 -35 -211 -137 -493 -251 -693 -33
-57 -87 -145 -92 -150 -4 -3 -22 -29 -41 -57 -19 -29 -38 -53 -42 -53 -5 0 -8
-6 -8 -14 0 -8 -4 -16 -8 -18 -5 -1 -33 -32 -64 -68 -92 -110 -234 -244 -342
-322 -28 -21 -55 -41 -61 -45 -25 -20 -177 -113 -184 -113 -5 0 -14 -7 -21
-15 -7 -9 -15 -13 -18 -10 -3 3 -12 -1 -21 -8 -9 -8 -32 -20 -51 -27 -19 -8
-37 -17 -40 -20 -14 -17 -338 -134 -407 -146 -15 -3 -46 -10 -68 -15 -22 -5
-56 -12 -75 -15 -19 -2 -46 -7 -60 -9 -14 -3 -54 -8 -90 -11 l-66 -6 2 354 c1
194 2 356 3 359 0 4 23 9 51 13 68 9 253 56 265 67 5 5 15 9 22 9 28 0 283
125 303 149 3 3 32 24 65 46 64 43 240 212 297 285 74 96 175 263 170 283 -1
4 3 7 8 7 6 0 10 8 10 18 0 10 4 22 8 28 13 13 58 141 78 216 25 100 36 173
48 331 2 27 -2 40 -13 45 -12 6 -269 8 -327 3 -14 -1 -24 -60 -12 -67 5 -3 6
-10 2 -15 -3 -5 -8 -26 -10 -47 -9 -75 -33 -183 -51 -232 -3 -8 -7 -21 -9 -29
-5 -27 -114 -236 -136 -263 -13 -15 -36 -46 -53 -69 -49 -68 -174 -181 -267
-242 -48 -31 -89 -57 -92 -57 -3 0 -33 -13 -68 -29 -101 -48 -283 -99 -291
-82 -2 3 -3 256 -2 561 1 305 0 560 -2 565 -2 6 -69 10 -176 9 l-172 -1 0
-566 c0 -383 -3 -568 -10 -571 -18 -6 -186 40 -263 72 -80 35 -194 99 -231
131 -13 12 -27 21 -31 21 -31 0 -290 300 -290 336 0 7 -3 14 -8 16 -18 8 -94
195 -113 278 -20 87 -25 120 -33 219 -3 29 -7 56 -10 59 -3 3 -78 5 -165 5
-116 0 -164 -3 -175 -12 -9 -7 -13 -17 -10 -22 3 -5 7 -39 10 -76 3 -60 6 -84
20 -168 9 -60 49 -200 73 -260 22 -54 77 -172 86 -185 6 -8 17 -28 25 -45 25
-49 153 -216 216 -280 131 -134 286 -246 432 -311 42 -19 86 -39 97 -44 33
-15 177 -59 214 -65 19 -3 38 -8 42 -11 5 -2 32 -7 61 -10 29 -3 54 -6 55 -8
1 -1 3 -162 3 -357 l1 -354 -58 1 c-61 2 -114 9 -192 25 -25 5 -55 11 -66 13
-30 5 -148 36 -165 43 -8 3 -20 7 -25 8 -42 10 -269 106 -351 150 -263 138
-525 355 -702 580 -34 44 -67 86 -73 93 -54 66 -185 302 -244 440 -45 107
-100 283 -121 387 -2 11 -6 31 -9 45 -3 14 -8 41 -11 60 -3 19 -7 46 -10 60
-4 23 -13 147 -19 250 -2 25 -3 47 -4 50 -1 4 -310 5 -344 1 -4 -1 -5 -49 -2
-108 6 -110 7 -126 19 -229 12 -93 60 -327 80 -389 2 -5 4 -14 6 -20 1 -5 8
-26 16 -45 8 -19 14 -36 14 -38 -2 -4 49 -137 72 -192 24 -53 96 -198 128
-255 27 -49 165 -259 182 -277 7 -7 26 -30 42 -52 101 -135 313 -340 472 -456
32 -24 61 -47 64 -50 13 -18 277 -169 375 -215 106 -50 196 -86 212 -87 5 0
13 -3 18 -8 10 -8 187 -64 235 -74 22 -5 68 -16 125 -29 24 -6 102 -19 130
-22 77 -10 154 -18 175 -19 l25 -2 5 -139 c3 -77 4 -231 2 -343 l-3 -204 -72
6 c-88 8 -175 17 -196 21 -9 1 -36 6 -61 9 -37 6 -201 38 -260 51 -144 33
-410 124 -560 192 -100 45 -289 142 -300 153 -3 3 -18 12 -35 20 -16 8 -34 18
-40 23 -5 4 -48 32 -94 63 -75 49 -228 160 -241 174 -3 3 -21 18 -40 34 -64
52 -192 170 -251 231 -126 131 -135 142 -229 262 -34 43 -67 85 -74 94 -68 83
-296 467 -296 496 0 7 -5 13 -12 13 -6 0 -9 3 -5 6 3 4 -5 29 -19 57 -14 27
-45 100 -69 161 -23 61 -46 120 -50 131 -4 11 -9 26 -11 32 -1 7 -11 41 -22
75 -18 54 -34 112 -48 168 -9 37 -45 218 -50 250 -2 19 -7 46 -10 60 -3 14 -8
48 -10 75 -3 28 -7 68 -9 90 -3 22 -7 99 -11 170 -3 72 -8 132 -10 134 -7 8
-302 6 -297 -1 2 -5 -7 -4 -21 2 -22 8 -26 7 -27 -8z"/>
</g>
</svg>
